<mxfile host="app.diagrams.net" modified="2023-11-02T02:11:41.886Z" agent="Mozilla/5.0 (Windows NT 10.0; Win64; x64; rv:109.0) Gecko/20100101 Firefox/119.0" etag="-KA-KpKWmhHXQ5Z4ICOz" version="22.0.8" type="device">
  <diagram id="C5RBs43oDa-KdzZeNtuy" name="Page-1">
    <mxGraphModel dx="880" dy="470" grid="1" gridSize="10" guides="1" tooltips="1" connect="1" arrows="2" fold="1" page="1" pageScale="3" pageWidth="827" pageHeight="1169" math="0" shadow="0">
      <root>
        <mxCell id="WIyWlLk6GJQsqaUBKTNV-0" />
        <mxCell id="WIyWlLk6GJQsqaUBKTNV-1" parent="WIyWlLk6GJQsqaUBKTNV-0" />
        <mxCell id="BTNf-qpFEBP6sLvYOepa-16" value="" style="edgeStyle=orthogonalEdgeStyle;rounded=0;orthogonalLoop=1;jettySize=auto;html=1;fontStyle=1" edge="1" parent="WIyWlLk6GJQsqaUBKTNV-1" source="BTNf-qpFEBP6sLvYOepa-2" target="BTNf-qpFEBP6sLvYOepa-13">
          <mxGeometry relative="1" as="geometry" />
        </mxCell>
        <mxCell id="BTNf-qpFEBP6sLvYOepa-2" value="MAIN" style="rounded=1;whiteSpace=wrap;html=1;arcSize=50;fontStyle=1" vertex="1" parent="WIyWlLk6GJQsqaUBKTNV-1">
          <mxGeometry x="285" y="230" width="90" height="40" as="geometry" />
        </mxCell>
        <mxCell id="BTNf-qpFEBP6sLvYOepa-18" value="" style="edgeStyle=orthogonalEdgeStyle;rounded=0;orthogonalLoop=1;jettySize=auto;html=1;fontStyle=1" edge="1" parent="WIyWlLk6GJQsqaUBKTNV-1" source="BTNf-qpFEBP6sLvYOepa-13" target="BTNf-qpFEBP6sLvYOepa-17">
          <mxGeometry relative="1" as="geometry" />
        </mxCell>
        <mxCell id="BTNf-qpFEBP6sLvYOepa-13" value="Integer bilangan" style="shape=process;whiteSpace=wrap;html=1;backgroundOutline=1;size=0.08333333333333333;fontStyle=1" vertex="1" parent="WIyWlLk6GJQsqaUBKTNV-1">
          <mxGeometry x="270" y="320" width="120" height="40" as="geometry" />
        </mxCell>
        <mxCell id="BTNf-qpFEBP6sLvYOepa-21" value="" style="edgeStyle=orthogonalEdgeStyle;rounded=0;orthogonalLoop=1;jettySize=auto;html=1;fontStyle=1" edge="1" parent="WIyWlLk6GJQsqaUBKTNV-1" source="BTNf-qpFEBP6sLvYOepa-17" target="BTNf-qpFEBP6sLvYOepa-20">
          <mxGeometry relative="1" as="geometry" />
        </mxCell>
        <mxCell id="BTNf-qpFEBP6sLvYOepa-17" value="Input bilangan" style="shape=parallelogram;perimeter=parallelogramPerimeter;whiteSpace=wrap;html=1;fixedSize=1;fontStyle=1" vertex="1" parent="WIyWlLk6GJQsqaUBKTNV-1">
          <mxGeometry x="240" y="390" width="180" height="30" as="geometry" />
        </mxCell>
        <mxCell id="BTNf-qpFEBP6sLvYOepa-19" value="Integer bilangan" style="shape=internalStorage;whiteSpace=wrap;html=1;backgroundOutline=1;dx=10;dy=10;fontStyle=1" vertex="1" parent="WIyWlLk6GJQsqaUBKTNV-1">
          <mxGeometry x="270" y="320" width="120" height="40" as="geometry" />
        </mxCell>
        <mxCell id="BTNf-qpFEBP6sLvYOepa-23" value="" style="edgeStyle=orthogonalEdgeStyle;rounded=0;orthogonalLoop=1;jettySize=auto;html=1;fontStyle=0" edge="1" parent="WIyWlLk6GJQsqaUBKTNV-1" source="BTNf-qpFEBP6sLvYOepa-20" target="BTNf-qpFEBP6sLvYOepa-22">
          <mxGeometry relative="1" as="geometry">
            <Array as="points">
              <mxPoint x="140" y="515" />
            </Array>
          </mxGeometry>
        </mxCell>
        <mxCell id="BTNf-qpFEBP6sLvYOepa-25" value="" style="edgeStyle=orthogonalEdgeStyle;rounded=0;orthogonalLoop=1;jettySize=auto;html=1;fontStyle=1" edge="1" parent="WIyWlLk6GJQsqaUBKTNV-1" source="BTNf-qpFEBP6sLvYOepa-20" target="BTNf-qpFEBP6sLvYOepa-24">
          <mxGeometry relative="1" as="geometry">
            <Array as="points">
              <mxPoint x="520" y="515" />
            </Array>
          </mxGeometry>
        </mxCell>
        <mxCell id="BTNf-qpFEBP6sLvYOepa-20" value="bilangan mod 2 = 0" style="rhombus;whiteSpace=wrap;html=1;fontStyle=1" vertex="1" parent="WIyWlLk6GJQsqaUBKTNV-1">
          <mxGeometry x="250" y="480" width="160" height="70" as="geometry" />
        </mxCell>
        <mxCell id="BTNf-qpFEBP6sLvYOepa-29" style="edgeStyle=orthogonalEdgeStyle;rounded=0;orthogonalLoop=1;jettySize=auto;html=1;exitX=0.5;exitY=1;exitDx=0;exitDy=0;fontStyle=0" edge="1" parent="WIyWlLk6GJQsqaUBKTNV-1" source="BTNf-qpFEBP6sLvYOepa-22">
          <mxGeometry relative="1" as="geometry">
            <mxPoint x="300" y="680" as="targetPoint" />
            <mxPoint x="140" y="650" as="sourcePoint" />
            <Array as="points">
              <mxPoint x="140" y="680" />
            </Array>
          </mxGeometry>
        </mxCell>
        <mxCell id="BTNf-qpFEBP6sLvYOepa-22" value="&lt;div&gt;Output bilangan &amp;amp; &quot;adalah &lt;br&gt;&lt;/div&gt;&lt;div&gt;bilangan ganjil&quot;&lt;br&gt;&lt;/div&gt;" style="shape=parallelogram;perimeter=parallelogramPerimeter;whiteSpace=wrap;html=1;fixedSize=1;fontStyle=0" vertex="1" parent="WIyWlLk6GJQsqaUBKTNV-1">
          <mxGeometry x="30" y="570" width="220" height="53.75" as="geometry" />
        </mxCell>
        <mxCell id="BTNf-qpFEBP6sLvYOepa-30" style="edgeStyle=orthogonalEdgeStyle;rounded=0;orthogonalLoop=1;jettySize=auto;html=1;fontStyle=1" edge="1" parent="WIyWlLk6GJQsqaUBKTNV-1" source="BTNf-qpFEBP6sLvYOepa-24">
          <mxGeometry relative="1" as="geometry">
            <mxPoint x="350" y="682" as="targetPoint" />
            <Array as="points">
              <mxPoint x="510" y="682" />
              <mxPoint x="401" y="682" />
            </Array>
          </mxGeometry>
        </mxCell>
        <mxCell id="BTNf-qpFEBP6sLvYOepa-24" value="&lt;div&gt;Ouput bilangan &amp;amp; &quot; adalah &lt;br&gt;&lt;/div&gt;&lt;div&gt;bilangan genap&quot;&lt;br&gt;&lt;/div&gt;" style="shape=parallelogram;perimeter=parallelogramPerimeter;whiteSpace=wrap;html=1;fixedSize=1;fontStyle=1" vertex="1" parent="WIyWlLk6GJQsqaUBKTNV-1">
          <mxGeometry x="390" y="570" width="240" height="53.75" as="geometry" />
        </mxCell>
        <mxCell id="BTNf-qpFEBP6sLvYOepa-32" style="edgeStyle=orthogonalEdgeStyle;rounded=0;orthogonalLoop=1;jettySize=auto;html=1;fontStyle=1" edge="1" parent="WIyWlLk6GJQsqaUBKTNV-1" source="BTNf-qpFEBP6sLvYOepa-31" target="BTNf-qpFEBP6sLvYOepa-33">
          <mxGeometry relative="1" as="geometry">
            <mxPoint x="325" y="730" as="targetPoint" />
          </mxGeometry>
        </mxCell>
        <mxCell id="BTNf-qpFEBP6sLvYOepa-31" value="" style="ellipse;whiteSpace=wrap;html=1;aspect=fixed;fontStyle=1" vertex="1" parent="WIyWlLk6GJQsqaUBKTNV-1">
          <mxGeometry x="300" y="660" width="50" height="50" as="geometry" />
        </mxCell>
        <mxCell id="BTNf-qpFEBP6sLvYOepa-33" value="End" style="rounded=1;whiteSpace=wrap;html=1;arcSize=50;fontStyle=1" vertex="1" parent="WIyWlLk6GJQsqaUBKTNV-1">
          <mxGeometry x="267.5" y="740" width="115" height="40" as="geometry" />
        </mxCell>
      </root>
    </mxGraphModel>
  </diagram>
</mxfile>
